<svg xmlns="http://www.w3.org/2000/svg" viewBox="0 0 1024 1024" width="1024" height="1024">
  <defs>
    <radialGradient id="glow" cx="50%" cy="50%" r="50%">
      <stop offset="0%" stop-color="#e05a50" stop-opacity="0.32"/>
      <stop offset="60%" stop-color="#e05a50" stop-opacity="0"/>
    </radialGradient>
  </defs>
  <rect width="1024" height="1024" rx="208" fill="#16171a"/>
  <rect width="1024" height="1024" rx="208" fill="url(#glow)"/>
  <g transform="translate(242 242) scale(2.1094)"><path d="M215.8,119.6l-69.26,70.06a8,8,0,0,1-5.65,2.34H64.2V115.31a8,8,0,0,1,2.34-5.65L112.2,64.52V144l24-24Z"  fill="#e05a50" opacity="0.45"/><path fill="#e4e3dc" d="M221.28,34.75a64,64,0,0,0-90.49,0L60.69,104A15.9,15.9,0,0,0,56,115.31v73.38L26.34,218.34a8,8,0,0,0,11.32,11.32L67.32,200H140.7A15.92,15.92,0,0,0,152,195.32l0,0,69.23-70A64,64,0,0,0,221.28,34.75ZM142.07,46.06A48,48,0,0,1,211.79,112H155.33l34.35-34.34a8,8,0,0,0-11.32-11.32L120,124.69V67.87ZM72,115.35l32-31.67v57l-32,32ZM140.7,184H83.32l56-56h56.74Z"/></g>
</svg>